<?xml version="1.0" encoding="UTF-8" standalone="no"?>
<!-- Created with Inkscape (http://www.inkscape.org/) -->

<svg
   width="144mm"
   height="144mm"
   viewBox="0 0 144 144"
   version="1.1"
   id="svg1"
   inkscape:version="1.4.2 (ebf0e940, 2025-05-08)"
   sodipodi:docname="favicon.svg"
   xmlns:inkscape="http://www.inkscape.org/namespaces/inkscape"
   xmlns:sodipodi="http://sodipodi.sourceforge.net/DTD/sodipodi-0.dtd"
   xmlns="http://www.w3.org/2000/svg"
   xmlns:svg="http://www.w3.org/2000/svg">
  <sodipodi:namedview
     id="namedview1"
     pagecolor="#ffffff"
     bordercolor="#000000"
     borderopacity="0.25"
     inkscape:showpageshadow="false"
     inkscape:pageopacity="0.0"
     inkscape:pagecheckerboard="0"
     inkscape:deskcolor="#d1d1d1"
     inkscape:document-units="mm"
     showborder="false"
     borderlayer="false"
     inkscape:zoom="0.29228667"
     inkscape:cx="241.20155"
     inkscape:cy="150.53714"
     inkscape:window-width="1288"
     inkscape:window-height="693"
     inkscape:window-x="166"
     inkscape:window-y="37"
     inkscape:window-maximized="0"
     inkscape:current-layer="layer1" />
  <defs
     id="defs1" />
  <g
     inkscape:label="Layer 1"
     inkscape:groupmode="layer"
     id="layer1">
    <path
       id="path8"
       style="font-size:198.894px;font-family:'DIN Condensed';-inkscape-font-specification:'DIN Condensed, ';stroke-width:2.49999;stroke-linecap:square;paint-order:markers fill stroke"
       d="M 38.129972 118.13594 L 34.674886 133.14846 C 38.095963 135.22606 41.719884 137.05284 45.547091 138.62875 C 54.696215 142.20884 64.442095 143.99896 74.784583 143.99896 C 81.546979 143.99896 88.110246 143.26954 94.474854 141.81098 C 100.97206 140.21983 107.07185 137.96572 112.77348 135.0486 C 118.3425 132.13149 123.44745 128.55176 128.08831 124.30869 C 132.86177 120.06562 136.83964 115.29196 140.02194 109.98812 L 124.70712 109.98812 C 122.32038 112.77263 119.33685 115.49074 115.75676 118.14266 C 112.30926 120.66199 108.4641 122.84974 104.22103 124.70608 C 99.977953 126.56243 95.469729 128.08763 90.696273 129.281 C 85.922817 130.34176 81.149156 130.87212 76.3757 130.87212 C 67.624365 130.87212 59.602249 129.34691 52.309469 126.2972 C 47.151887 124.14039 42.42541 121.42017 38.129972 118.13594 z " />
    <path
       id="path5"
       style="font-size:198.894px;font-family:'DIN Condensed';-inkscape-font-specification:'DIN Condensed, ';stroke-width:2.49999;stroke-linecap:square;paint-order:markers fill stroke"
       d="M 75.182491 -0.00051676432 C 64.840004 -0.00051676432 55.094123 1.8559644 45.944999 5.5686523 C 36.928471 9.2813405 29.039072 14.386276 22.276676 20.88348 C 15.381684 27.380684 9.9449574 35.005166 5.9670776 43.756502 C 1.9891977 52.375242 0.00051676432 61.656614 0.00051676432 71.601314 C 0.00051676432 81.943802 1.9228395 91.55748 5.7681234 100.44141 C 9.6551737 109.12249 14.871957 116.60072 21.417814 122.87622 L 25.498702 105.23079 C 23.336143 102.20463 21.466423 98.95043 19.889742 95.468591 C 16.840034 88.308408 15.315344 80.684442 15.315344 72.596086 C 15.315344 64.905518 16.840034 57.48011 19.889742 50.319926 C 22.93945 43.159742 27.24912 36.795033 32.818152 31.226001 C 38.387184 25.656969 44.751376 21.281457 51.91156 18.099154 C 59.20434 14.784254 67.027898 13.126847 75.381445 13.126847 C 82.541629 13.126847 89.303971 14.253904 95.668579 16.508036 C 102.03319 18.762168 107.66848 22.010623 112.57452 26.253695 C 117.48058 30.496767 121.39209 35.535344 124.30921 41.369568 C 127.22632 47.203792 128.68465 53.568501 128.68465 60.463493 C 128.68465 65.236949 127.88939 70.14281 126.29823 75.181458 C 124.70708 80.08751 122.58517 84.662096 119.93325 88.905168 C 117.28133 93.148239 114.36467 96.595769 111.18236 99.247689 C 108.00006 101.89961 104.81745 103.22574 101.63514 103.22574 C 99.911394 103.22574 98.717977 102.69539 98.054997 101.63462 C 97.863837 101.32877 97.700629 100.99514 97.564587 100.63417 C 97.265963 100.93211 96.964144 101.22422 96.659216 101.51008 C 92.9992 104.94132 89.302632 107.65015 85.569971 109.63724 C 86.227306 110.60656 87.007731 111.45314 87.91143 112.1761 C 90.56335 114.16504 94.143596 115.15938 98.65186 115.15938 C 102.89493 115.15938 107.60223 113.83325 112.77348 111.18133 C 118.07732 108.39681 123.04954 104.55165 127.6904 99.645597 C 132.33126 94.872141 136.17642 89.104139 139.22613 82.341744 C 142.40843 75.446752 143.99948 67.822786 143.99948 59.469238 C 143.99948 50.717902 142.20935 42.762145 138.62926 35.601961 C 135.04917 28.309181 130.07695 22.01083 123.71235 16.706991 C 117.34773 11.40315 109.98869 7.2925555 101.63514 4.3754435 C 93.281594 1.4583316 84.464211 -0.00051676432 75.182491 -0.00051676432 z " />
    <text
       xml:space="preserve"
       style="font-size:168.274px;font-family:'DIN Condensed';-inkscape-font-specification:'DIN Condensed, ';text-align:start;writing-mode:lr-tb;direction:ltr;text-anchor:start;fill:#000000;fill-opacity:1;stroke:none;stroke-width:2.50001;stroke-linecap:square;paint-order:markers fill stroke"
       x="17.440866"
       y="118.04373"
       id="text12"
       transform="scale(1.0519861,0.95058291)"><tspan
         sodipodi:role="line"
         id="tspan12"
         style="font-style:italic;font-variant:normal;font-weight:normal;font-stretch:normal;font-family:Arial;-inkscape-font-specification:'Arial Italic';fill:#000000;fill-opacity:1;stroke-width:2.50001"
         x="17.440866"
         y="118.04373">p</tspan></text>
  </g>
</svg>
